<svg xmlns="http://www.w3.org/2000/svg" viewBox="0 0 400 74"><defs><style>.cls-1{fill:none;}.cls-2{fill:#f27233;}.cls-3{fill:#231f20;}</style></defs><g id="Layer_2" data-name="Layer 2"><g id="Layer_1-2" data-name="Layer 1"><rect class="cls-1" width="400" height="74"/><g id="All_In_IT_Solutions" data-name="All In IT Solutions"><circle class="cls-2" cx="234.23" cy="71.52" r="1.45"/><circle class="cls-2" cx="354.43" cy="71.52" r="1.45"/><polygon class="cls-3" points="61.88 37.19 70.9 62.1 71.19 62.84 81.97 62.83 71.83 37.22 61.88 37.19"/><polygon class="cls-3" points="59.87 31.66 69.64 31.69 66.61 24.07 57.17 24.21 59.87 31.66"/><path class="cls-2" d="M53.79,62.84l-6.7-18.77-20-7-9,25.76H7.48L30.51,1h11l23,61.8ZM45,37.08,39.23,20.32q-.65-1.68-1.75-5.3c-.75-2.42-1.26-4.18-1.54-5.31A96.75,96.75,0,0,1,32.62,21l-5.56,16Z"/><path class="cls-3" d="M112.24,46.4l-2.51-7h-9.6l-2.46,7H93.34l9.4-25.22h4.46l9.4,25.22Zm-3.59-10.51-2.36-6.84c-.17-.46-.41-1.18-.71-2.16s-.51-1.71-.63-2.17a39.37,39.37,0,0,1-1.35,4.62l-2.27,6.55Z"/><path class="cls-3" d="M123.52,46.4h-4V19.67h4Z"/><path class="cls-3" d="M133.33,46.4h-4V19.67h4Z"/><path class="cls-3" d="M148,22.37a2.27,2.27,0,0,1,.59-1.67,2.31,2.31,0,0,1,1.69-.58,2.25,2.25,0,0,1,1.66.58,2.23,2.23,0,0,1,.59,1.67,2.15,2.15,0,0,1-.59,1.62,2.22,2.22,0,0,1-1.66.59,2.28,2.28,0,0,1-1.69-.59A2.19,2.19,0,0,1,148,22.37Zm4.28,24h-4v-19h4Z"/><path class="cls-3" d="M174.76,46.4h-4V34.72a5.1,5.1,0,0,0-.89-3.28A3.42,3.42,0,0,0,167,30.36a4.46,4.46,0,0,0-3.74,1.51c-.79,1-1.19,2.69-1.19,5.07V46.4h-4v-19h3.16l.57,2.49h.2a5.63,5.63,0,0,1,2.44-2.09,8,8,0,0,1,3.5-.74q6.84,0,6.84,7Z"/><path class="cls-3" d="M190,46.4V21.29h4.1V46.4Z"/><path class="cls-3" d="M209.35,46.4h-4.1V24.81h-7.38V21.29h18.87v3.52h-7.39Z"/><path class="cls-3" d="M244.21,39.58a6.35,6.35,0,0,1-2.42,5.26,10.56,10.56,0,0,1-6.69,1.9,16,16,0,0,1-7-1.32V41.54a19,19,0,0,0,3.65,1.27,15.44,15.44,0,0,0,3.6.46,5.77,5.77,0,0,0,3.6-.92,3,3,0,0,0,1.16-2.5,3.12,3.12,0,0,0-1.07-2.38,16,16,0,0,0-4.39-2.32A11.63,11.63,0,0,1,229.83,32a6.71,6.71,0,0,1-1.41-4.29,6,6,0,0,1,2.24-4.95,9.26,9.26,0,0,1,6-1.8,17.48,17.48,0,0,1,7.18,1.58l-1.3,3.35a15.72,15.72,0,0,0-6-1.41,4.6,4.6,0,0,0-3,.87,2.84,2.84,0,0,0-1,2.29,3.16,3.16,0,0,0,.41,1.67,4.16,4.16,0,0,0,1.35,1.32,23.81,23.81,0,0,0,3.41,1.63,18.53,18.53,0,0,1,4.05,2.15,6.23,6.23,0,0,1,1.89,2.25A6.75,6.75,0,0,1,244.21,39.58Z"/><path class="cls-3" d="M265.49,36.87a10.37,10.37,0,0,1-2.39,7.26,8.54,8.54,0,0,1-6.64,2.61,9.12,9.12,0,0,1-4.71-1.2,7.92,7.92,0,0,1-3.14-3.45,11.66,11.66,0,0,1-1.1-5.22,10.32,10.32,0,0,1,2.37-7.22,8.58,8.58,0,0,1,6.68-2.59,8.38,8.38,0,0,1,6.53,2.65A10.28,10.28,0,0,1,265.49,36.87Zm-13.83,0q0,6.57,4.86,6.57t4.81-6.57q0-6.51-4.84-6.51A4.15,4.15,0,0,0,252.8,32,8.58,8.58,0,0,0,251.66,36.87Z"/><path class="cls-3" d="M274.16,46.4h-4V19.67h4Z"/><path class="cls-3" d="M293.33,46.4l-.56-2.49h-.21a5.77,5.77,0,0,1-2.4,2.08,8,8,0,0,1-3.54.75A7,7,0,0,1,281.46,45a7.15,7.15,0,0,1-1.7-5.21V27.4h4.08V39.12a5.06,5.06,0,0,0,.89,3.27,3.4,3.4,0,0,0,2.8,1.09A4.45,4.45,0,0,0,291.26,42q1.2-1.51,1.2-5.09V27.4h4.05v19Z"/><path class="cls-3" d="M309.35,43.48A10.13,10.13,0,0,0,312.3,43v3a9,9,0,0,1-1.73.49,12,12,0,0,1-2.19.19q-5.73,0-5.73-6V30.46h-2.6V28.67l2.78-1.47,1.38-4h2.49V27.4h5.41v3.06H306.7V40.63a2.83,2.83,0,0,0,.73,2.15A2.64,2.64,0,0,0,309.35,43.48Z"/><path class="cls-3" d="M315.85,22.37a2.23,2.23,0,0,1,.6-1.67,2.3,2.3,0,0,1,1.69-.58,2,2,0,0,1,2.25,2.25A2.19,2.19,0,0,1,319.8,24a2.23,2.23,0,0,1-1.66.59,2.26,2.26,0,0,1-1.69-.59A2.16,2.16,0,0,1,315.85,22.37Zm4.28,24h-4v-19h4Z"/><path class="cls-3" d="M342.75,36.87c0,3.1-.79,5.52-2.39,7.26a8.54,8.54,0,0,1-6.64,2.61,9.12,9.12,0,0,1-4.71-1.2,7.92,7.92,0,0,1-3.14-3.45,11.79,11.79,0,0,1-1.1-5.22,10.32,10.32,0,0,1,2.37-7.22,8.59,8.59,0,0,1,6.68-2.59,8.36,8.36,0,0,1,6.53,2.65A10.28,10.28,0,0,1,342.75,36.87Zm-13.82,0q0,6.57,4.86,6.57c3.2,0,4.81-2.19,4.81-6.57s-1.62-6.51-4.85-6.51A4.13,4.13,0,0,0,330.07,32,8.58,8.58,0,0,0,328.93,36.87Z"/><path class="cls-3" d="M364.1,46.4h-4.05V34.72a5.1,5.1,0,0,0-.88-3.28,3.43,3.43,0,0,0-2.81-1.08,4.46,4.46,0,0,0-3.75,1.51c-.79,1-1.18,2.69-1.18,5.07V46.4h-4v-19h3.16l.57,2.49h.2a5.66,5.66,0,0,1,2.45-2.09,8,8,0,0,1,3.5-.74q6.84,0,6.83,7Z"/><path class="cls-3" d="M382.49,41a5,5,0,0,1-2,4.27,9.72,9.72,0,0,1-5.81,1.48,13.63,13.63,0,0,1-6.09-1.15V42.11a15,15,0,0,0,6.23,1.54c2.49,0,3.73-.75,3.73-2.25a1.8,1.8,0,0,0-.41-1.2,5.13,5.13,0,0,0-1.36-1A25.23,25.23,0,0,0,374.12,38a12,12,0,0,1-4.44-2.54,4.7,4.7,0,0,1-1.16-3.3,4.33,4.33,0,0,1,2-3.78,9.31,9.31,0,0,1,5.35-1.35,15.26,15.26,0,0,1,6.34,1.35l-1.31,3.05a14.07,14.07,0,0,0-5.17-1.28c-2.13,0-3.19.61-3.19,1.82a1.84,1.84,0,0,0,.83,1.52,18.07,18.07,0,0,0,3.63,1.7,17,17,0,0,1,3.42,1.66A5,5,0,0,1,382,38.63,5.07,5.07,0,0,1,382.49,41Z"/><path class="cls-3" d="M121.53,72.73H120l.92-4.66-3.06-6.59h1.57l2.43,5.38,4.47-5.38h1.71l-5.62,6.59Z"/><path class="cls-3" d="M135.56,67.28a8,8,0,0,1-.32,2.16,5.8,5.8,0,0,1-.92,1.9,3.7,3.7,0,0,1-1.45,1.16,4.74,4.74,0,0,1-2,.39,3.31,3.31,0,0,1-2.47-.94,3.53,3.53,0,0,1-.91-2.56,7.44,7.44,0,0,1,.59-2.89,4.25,4.25,0,0,1,1.55-1.91,4.41,4.41,0,0,1,2.45-.65,3.46,3.46,0,0,1,2.56.88A3.3,3.3,0,0,1,135.56,67.28Zm-1.49,0q0-2.28-2-2.28a2.58,2.58,0,0,0-1.73.55,3.6,3.6,0,0,0-1,1.68,7.15,7.15,0,0,0-.36,2.18,2.76,2.76,0,0,0,.51,1.8,1.81,1.81,0,0,0,1.48.62,2.75,2.75,0,0,0,1.32-.28,2.48,2.48,0,0,0,.88-.86,5.56,5.56,0,0,0,.61-1.5A9,9,0,0,0,134.07,67.28Z"/><path class="cls-3" d="M140.2,64.09l-1,5.15a5.82,5.82,0,0,0-.14,1.2c0,.89.47,1.33,1.42,1.33a2.41,2.41,0,0,0,1.77-.76,3.91,3.91,0,0,0,1-2.08l.94-4.84h1.43l-1.32,6.79c-.11.51-.21,1.12-.31,1.85h-1.36c0-.06,0-.27.08-.62l.15-.86h0a4,4,0,0,1-1.33,1.27,3.26,3.26,0,0,1-1.58.36,2.45,2.45,0,0,1-1.78-.58,2.28,2.28,0,0,1-.59-1.69,6.71,6.71,0,0,1,.17-1.3l1-5.22Z"/><path class="cls-3" d="M152.53,65.24a2.55,2.55,0,0,0-.72-.1,1.9,1.9,0,0,0-1.51.88,5,5,0,0,0-.92,2.21l-.87,4.5h-1.44l1.29-6.62.2-1.11.15-.91h1.35l-.28,1.77h0a4.73,4.73,0,0,1,1-1.49,1.79,1.79,0,0,1,1.19-.44,2.55,2.55,0,0,1,.75.12Z"/><path class="cls-3" d="M161.1,61.48h4.07a4.44,4.44,0,0,1,2.63.69,2.2,2.2,0,0,1,1,1.88c0,1.52-.9,2.44-2.71,2.75a2.89,2.89,0,0,1,1.71.83,2.25,2.25,0,0,1,.61,1.6,3,3,0,0,1-1.25,2.6,5.8,5.8,0,0,1-3.45.9h-4.75Zm-.42,10h2.93a4.12,4.12,0,0,0,2.46-.59,2,2,0,0,0,.77-1.72,1.5,1.5,0,0,0-.63-1.3,3.12,3.12,0,0,0-1.82-.45h-2.92Zm1-5.25h2.64c1.89,0,2.83-.68,2.83-2.05,0-1-.71-1.5-2.14-1.5h-2.64Z"/><path class="cls-3" d="M173.45,64.09l-1,5.15a5.82,5.82,0,0,0-.14,1.2c0,.89.47,1.33,1.42,1.33A2.43,2.43,0,0,0,175.5,71a4,4,0,0,0,1-2.08l.94-4.84h1.44l-1.33,6.79c-.1.51-.21,1.12-.31,1.85H175.9c0-.06,0-.27.09-.62s.1-.64.14-.86h0a4,4,0,0,1-1.33,1.27,3.26,3.26,0,0,1-1.58.36,2.4,2.4,0,0,1-1.77-.58,2.25,2.25,0,0,1-.6-1.69,6.71,6.71,0,0,1,.17-1.3l1-5.22Z"/><path class="cls-3" d="M187.28,70.2a2.3,2.3,0,0,1-1,2,4.89,4.89,0,0,1-2.86.7,4.44,4.44,0,0,1-2.2-.47A2.5,2.5,0,0,1,180.08,71l1.17-.45a1.89,1.89,0,0,0,.82,1,2.92,2.92,0,0,0,1.49.32,3.24,3.24,0,0,0,1.73-.38,1.26,1.26,0,0,0,.59-1.13,1,1,0,0,0-.4-.83,5.93,5.93,0,0,0-1.73-.74,7.32,7.32,0,0,1-1.53-.65,2.44,2.44,0,0,1-.78-.75,1.79,1.79,0,0,1-.27-1,2.05,2.05,0,0,1,.92-1.79A4.71,4.71,0,0,1,184.7,64c1.88,0,2.94.68,3.18,2l-1.3.2a1.47,1.47,0,0,0-.66-.91,2.74,2.74,0,0,0-1.31-.28,3,3,0,0,0-1.52.32,1,1,0,0,0-.37,1.46,1.69,1.69,0,0,0,.49.41,9.32,9.32,0,0,0,1.45.54,6.43,6.43,0,0,1,1.53.64,2.6,2.6,0,0,1,.8.78A1.88,1.88,0,0,1,187.28,70.2Z"/><path class="cls-3" d="M189.29,72.73,191,64.09h1.43l-1.68,8.64Zm2-10.47.27-1.37H193l-.27,1.37Z"/><path class="cls-3" d="M199.2,72.73l1-5.15a6.61,6.61,0,0,0,.14-1.2c0-.88-.48-1.33-1.43-1.33a2.44,2.44,0,0,0-1.77.77,3.9,3.9,0,0,0-1,2.07l-.94,4.84h-1.44l1.32-6.79c.11-.51.21-1.12.32-1.85h1.35c0,.06,0,.27-.08.62s-.11.64-.14.86h0a4,4,0,0,1,1.33-1.27,3.26,3.26,0,0,1,1.58-.36,2.49,2.49,0,0,1,1.78.58,2.25,2.25,0,0,1,.6,1.69,6.8,6.8,0,0,1-.17,1.31l-1,5.21Z"/><path class="cls-3" d="M205.43,68.71a6.71,6.71,0,0,0-.08.91,2.25,2.25,0,0,0,.54,1.62,2.07,2.07,0,0,0,1.6.57,2.64,2.64,0,0,0,2.38-1.43l1.1.5a3.65,3.65,0,0,1-1.48,1.53,4.52,4.52,0,0,1-2.17.48,3.09,3.09,0,0,1-3.39-3.39,7,7,0,0,1,.57-2.88,4.59,4.59,0,0,1,1.6-2,4,4,0,0,1,2.31-.71,3.67,3.67,0,0,1,2.55.83,3,3,0,0,1,.91,2.32,6.8,6.8,0,0,1-.2,1.63Zm5-1.1,0-.57a2.06,2.06,0,0,0-.52-1.52,2,2,0,0,0-1.48-.52,2.52,2.52,0,0,0-1.8.68,3.8,3.8,0,0,0-1,1.93Z"/><path class="cls-3" d="M220.53,70.2a2.3,2.3,0,0,1-1,2,4.89,4.89,0,0,1-2.86.7,4.44,4.44,0,0,1-2.2-.47A2.5,2.5,0,0,1,213.33,71l1.17-.45a1.89,1.89,0,0,0,.82,1,2.92,2.92,0,0,0,1.49.32,3.24,3.24,0,0,0,1.73-.38,1.26,1.26,0,0,0,.59-1.13,1,1,0,0,0-.4-.83,5.93,5.93,0,0,0-1.73-.74,7.32,7.32,0,0,1-1.53-.65,2.44,2.44,0,0,1-.78-.75,1.79,1.79,0,0,1-.27-1,2.05,2.05,0,0,1,.92-1.79A4.71,4.71,0,0,1,218,64c1.88,0,2.94.68,3.18,2l-1.3.2a1.47,1.47,0,0,0-.66-.91,2.74,2.74,0,0,0-1.31-.28,3,3,0,0,0-1.52.32,1,1,0,0,0-.37,1.46,1.69,1.69,0,0,0,.49.41,9.32,9.32,0,0,0,1.45.54,6.43,6.43,0,0,1,1.53.64,2.6,2.6,0,0,1,.8.78A1.88,1.88,0,0,1,220.53,70.2Z"/><path class="cls-3" d="M229.52,70.2a2.3,2.3,0,0,1-1,2,4.89,4.89,0,0,1-2.86.7,4.44,4.44,0,0,1-2.2-.47A2.5,2.5,0,0,1,222.32,71l1.17-.45a1.89,1.89,0,0,0,.82,1,2.92,2.92,0,0,0,1.49.32,3.24,3.24,0,0,0,1.73-.38,1.28,1.28,0,0,0,.59-1.13,1,1,0,0,0-.41-.83,5.71,5.71,0,0,0-1.72-.74,7.32,7.32,0,0,1-1.53-.65,2.44,2.44,0,0,1-.78-.75,1.8,1.8,0,0,1-.28-1,2,2,0,0,1,.93-1.79,4.71,4.71,0,0,1,2.61-.62c1.88,0,2.94.68,3.18,2l-1.31.2a1.4,1.4,0,0,0-.66-.91,2.68,2.68,0,0,0-1.31-.28,3,3,0,0,0-1.51.32,1,1,0,0,0-.37,1.46,1.52,1.52,0,0,0,.48.41,9.6,9.6,0,0,0,1.46.54,6.62,6.62,0,0,1,1.53.64,2.6,2.6,0,0,1,.8.78A1.88,1.88,0,0,1,229.52,70.2Z"/><path class="cls-3" d="M249.12,61.32a4.74,4.74,0,0,1,3.49,1.25,4.47,4.47,0,0,1,1.28,3.37,7.84,7.84,0,0,1-.89,3.7,6,6,0,0,1-2.34,2.4,6.61,6.61,0,0,1-3.36.85,4.37,4.37,0,0,1-4.78-4.73,7.43,7.43,0,0,1,.85-3.51,6,6,0,0,1,2.35-2.47A6.76,6.76,0,0,1,249.12,61.32Zm-.07,1.23a4.91,4.91,0,0,0-2.71.71,4.44,4.44,0,0,0-1.7,2.12,7.22,7.22,0,0,0-.59,2.86,3.48,3.48,0,0,0,.85,2.54,3.29,3.29,0,0,0,2.47.87A4.93,4.93,0,0,0,250,71a4.5,4.5,0,0,0,1.72-2.07,7.08,7.08,0,0,0,.61-2.92,3.52,3.52,0,0,0-.86-2.54A3.29,3.29,0,0,0,249.05,62.55Z"/><path class="cls-3" d="M258.48,64.09l-1,5.15a6.61,6.61,0,0,0-.14,1.2c0,.89.48,1.33,1.43,1.33a2.42,2.42,0,0,0,1.77-.76,4,4,0,0,0,1-2.08l.94-4.84h1.44l-1.32,6.79c-.11.51-.22,1.12-.32,1.85h-1.35c0-.06,0-.27.08-.62s.1-.64.14-.86h0a4.21,4.21,0,0,1-1.33,1.27,3.33,3.33,0,0,1-1.59.36,2.44,2.44,0,0,1-1.77-.58,2.25,2.25,0,0,1-.6-1.69,6.71,6.71,0,0,1,.17-1.3l1-5.22Z"/><path class="cls-3" d="M270.8,65.24a2.46,2.46,0,0,0-.72-.1,1.91,1.91,0,0,0-1.51.88,5.11,5.11,0,0,0-.91,2.21l-.88,4.5h-1.44l1.3-6.62.2-1.11.14-.91h1.36l-.28,1.77h0a4.57,4.57,0,0,1,1-1.49,1.76,1.76,0,0,1,1.18-.44,2.61,2.61,0,0,1,.76.12Z"/><path class="cls-3" d="M281.61,72.89a5.7,5.7,0,0,1-3.09-.71A3.15,3.15,0,0,1,277.15,70l1.42-.29a2.17,2.17,0,0,0,1,1.49,4.15,4.15,0,0,0,2.19.46,4.79,4.79,0,0,0,2.55-.52,1.77,1.77,0,0,0,.81-1.6,1.48,1.48,0,0,0-.23-.86,2.05,2.05,0,0,0-.79-.58,13.24,13.24,0,0,0-1.93-.64,9.14,9.14,0,0,1-2-.77,3,3,0,0,1-1-1,2.5,2.5,0,0,1-.34-1.34A2.59,2.59,0,0,1,280,62.14a5.89,5.89,0,0,1,3.32-.82,5.73,5.73,0,0,1,2.82.6,2.7,2.7,0,0,1,1.33,1.77L286,64.1a2.11,2.11,0,0,0-1-1.24,3.68,3.68,0,0,0-1.83-.39c-2,0-3,.62-3,1.88a1.41,1.41,0,0,0,.2.78,1.7,1.7,0,0,0,.67.53,12.64,12.64,0,0,0,1.86.6,10.67,10.67,0,0,1,2.24.83,3.05,3.05,0,0,1,1,1,2.59,2.59,0,0,1,.37,1.41A2.93,2.93,0,0,1,285.4,72,6.56,6.56,0,0,1,281.61,72.89Z"/><path class="cls-3" d="M297,67.28a8,8,0,0,1-.32,2.16,5.79,5.79,0,0,1-.91,1.9,3.73,3.73,0,0,1-1.46,1.16,4.7,4.7,0,0,1-2,.39,3.33,3.33,0,0,1-2.48-.94,3.57,3.57,0,0,1-.91-2.56,7.44,7.44,0,0,1,.6-2.89,4.24,4.24,0,0,1,1.54-1.91,4.41,4.41,0,0,1,2.45-.65,3.5,3.5,0,0,1,2.57.88A3.33,3.33,0,0,1,297,67.28Zm-1.48,0q0-2.28-2-2.28a2.57,2.57,0,0,0-1.73.55,3.53,3.53,0,0,0-1,1.68,7.15,7.15,0,0,0-.36,2.18,2.76,2.76,0,0,0,.51,1.8,1.83,1.83,0,0,0,1.49.62,2.81,2.81,0,0,0,1.32-.28,2.46,2.46,0,0,0,.87-.86,5,5,0,0,0,.61-1.5A9,9,0,0,0,295.5,67.28Z"/><path class="cls-3" d="M298.58,72.73l2.3-11.84h1.43L300,72.73Z"/><path class="cls-3" d="M306.07,64.09l-1,5.15a6.61,6.61,0,0,0-.14,1.2c0,.89.47,1.33,1.42,1.33a2.43,2.43,0,0,0,1.78-.76,4,4,0,0,0,1-2.08l.94-4.84h1.44l-1.33,6.79c-.1.51-.21,1.12-.31,1.85h-1.36c0-.06,0-.27.09-.62s.1-.64.14-.86h0a4.13,4.13,0,0,1-1.34,1.27,3.26,3.26,0,0,1-1.58.36,2.4,2.4,0,0,1-1.77-.58,2.25,2.25,0,0,1-.6-1.69,6.71,6.71,0,0,1,.17-1.3l1-5.22Z"/><path class="cls-3" d="M314.87,72.89a1.41,1.41,0,0,1-1.07-.41,1.49,1.49,0,0,1-.39-1.08,5.26,5.26,0,0,1,.12-1l1-5.23h-1l.21-1h1l.84-1.93h1l-.38,1.93h1.6l-.21,1H316l-1,5.15a3.68,3.68,0,0,0-.1.76.63.63,0,0,0,.72.7,3.3,3.3,0,0,0,.8-.12l-.15,1.07A6.46,6.46,0,0,1,314.87,72.89Z"/><path class="cls-3" d="M318.29,72.73,320,64.09h1.43l-1.68,8.64Zm2-10.47.27-1.37H322l-.27,1.37Z"/><path class="cls-3" d="M331.05,67.28a8,8,0,0,1-.32,2.16,5.8,5.8,0,0,1-.92,1.9,3.7,3.7,0,0,1-1.45,1.16,4.74,4.74,0,0,1-2,.39,3.31,3.31,0,0,1-2.47-.94,3.53,3.53,0,0,1-.91-2.56,7.44,7.44,0,0,1,.59-2.89,4.25,4.25,0,0,1,1.55-1.91,4.38,4.38,0,0,1,2.45-.65,3.46,3.46,0,0,1,2.56.88A3.3,3.3,0,0,1,331.05,67.28Zm-1.49,0q0-2.28-2-2.28a2.54,2.54,0,0,0-1.72.55,3.54,3.54,0,0,0-1,1.68,7.45,7.45,0,0,0-.35,2.18,2.76,2.76,0,0,0,.51,1.8,1.81,1.81,0,0,0,1.48.62,2.75,2.75,0,0,0,1.32-.28,2.4,2.4,0,0,0,.88-.86,5.26,5.26,0,0,0,.61-1.5A9,9,0,0,0,329.56,67.28Z"/><path class="cls-3" d="M338.1,72.73l1-5.15a5.82,5.82,0,0,0,.14-1.2c0-.88-.47-1.33-1.42-1.33a2.46,2.46,0,0,0-1.78.77,3.9,3.9,0,0,0-1,2.07l-.94,4.84h-1.44L334,65.94c.11-.51.21-1.12.31-1.85h1.36c0,.06,0,.27-.09.62s-.1.64-.13.86h0a4,4,0,0,1,1.33-1.27,3.26,3.26,0,0,1,1.58-.36,2.49,2.49,0,0,1,1.78.58,2.28,2.28,0,0,1,.59,1.69,6.09,6.09,0,0,1-.17,1.31l-1,5.21Z"/><path class="cls-3" d="M349.53,70.2a2.3,2.3,0,0,1-1,2,4.91,4.91,0,0,1-2.86.7,4.44,4.44,0,0,1-2.2-.47A2.5,2.5,0,0,1,342.33,71l1.17-.45a1.89,1.89,0,0,0,.82,1,2.92,2.92,0,0,0,1.49.32,3.24,3.24,0,0,0,1.73-.38,1.28,1.28,0,0,0,.59-1.13,1,1,0,0,0-.4-.83,5.93,5.93,0,0,0-1.73-.74,7.32,7.32,0,0,1-1.53-.65,2.59,2.59,0,0,1-.79-.75,1.87,1.87,0,0,1-.26-1,2,2,0,0,1,.92-1.79A4.71,4.71,0,0,1,347,64c1.88,0,2.94.68,3.18,2l-1.3.2a1.45,1.45,0,0,0-.67-.91,2.68,2.68,0,0,0-1.31-.28,3,3,0,0,0-1.52.32,1,1,0,0,0-.53.89,1,1,0,0,0,.17.57,1.46,1.46,0,0,0,.49.41,8.91,8.91,0,0,0,1.45.54,6.43,6.43,0,0,1,1.53.64,2.6,2.6,0,0,1,.8.78A1.88,1.88,0,0,1,349.53,70.2Z"/><polygon class="cls-3" points="388.17 26.85 385.18 26.85 385.18 27.35 386.4 27.35 386.4 30.55 386.94 30.55 386.94 27.35 388.17 27.35 388.17 26.85"/><path class="cls-3" d="M392.52,30.56V26.85h-.71l-.89,2.55a.58.58,0,0,1-.05.14l-.11.35-.1-.25a.29.29,0,0,1,0-.09.36.36,0,0,1,0-.11l-.89-2.59h-.77v3.71h.52v-3l1,3H391l1-2.93v2.93Z"/></g></g></g></svg>