<?xml version="1.0" encoding="UTF-8"?>
<svg id="Layer_2" data-name="Layer 2" xmlns="http://www.w3.org/2000/svg" xmlns:xlink="http://www.w3.org/1999/xlink" viewBox="0 0 158.07 74.09">
  <defs>
    <style>
      .cls-1, .cls-2, .cls-3, .cls-4 {
        stroke-width: 0px;
      }

      .cls-2 {
        fill: url(#radial-gradient-2);
      }

      .cls-3 {
        fill: url(#radial-gradient);
      }

      .cls-4 {
        fill: url(#radial-gradient-3);
      }
    </style>
    <radialGradient id="radial-gradient" cx="29.24" cy="79.57" fx="29.24" fy="79.57" r="76.06" gradientUnits="userSpaceOnUse">
      <stop offset="0" stop-color="#4275d4"/>
      <stop offset="1" stop-color="#2fe4cc"/>
    </radialGradient>
    <radialGradient id="radial-gradient-2" cx="-8.86" cy="207.43" fx="-8.86" fy="207.43" r="75.28" gradientTransform="translate(8.23 -129.61) rotate(-.54)" gradientUnits="userSpaceOnUse">
      <stop offset="0" stop-color="#4275d4"/>
      <stop offset=".21" stop-color="#3b9bd1"/>
      <stop offset=".42" stop-color="#35bbce"/>
      <stop offset=".63" stop-color="#32d1cd"/>
      <stop offset=".83" stop-color="#2fdfcc"/>
      <stop offset="1" stop-color="#2fe4cc"/>
    </radialGradient>
    <radialGradient id="radial-gradient-3" cx="21.14" cy="205.18" fx="21.14" fy="205.18" r="78.01" gradientTransform="translate(8.23 -129.61) rotate(-.54)" xlink:href="#radial-gradient"/>
  </defs>
  <g id="ART">
    <g>
      <g>
        <path class="cls-1" d="m63.69,31.41v-4.48h4.9v-2.77c0-5.92,3.68-9.7,9.92-9.7,2.27,0,3.79.69,4.24.93l-.56,4.37c-.72-.32-2.11-.67-3.44-.67-3.44,0-5.04,1.65-5.04,5.36v2.48h7.54v4.48h-7.46v21.11h-5.28v-21.11h-4.82Z"/>
        <path class="cls-1" d="m82.7,26.93h5.81l7.97,20.15,7.92-20.15h5.81l-12.26,28.84c-2.05,4.75-4.27,7.94-10.5,7.94-2.27,0-3.79-.69-4.24-.93l.56-4.37c.72.32,2.11.67,3.44.67,3.44,0,4.82-1.73,5.97-4.72l.56-1.47-11.04-25.96Z"/>
        <path class="cls-1" d="m114.91,52.52v-25.59h5.3v3.49c1.44-2.8,3.87-4.03,6.66-4.03,2,0,3.52.64,3.52.64l-.56,4.85c-.29-.11-1.44-.59-3.12-.59-2.83,0-6.5,1.49-6.5,7.28v13.94h-5.3Z"/>
        <path class="cls-1" d="m145.76,26.4c7.46,0,12.32,5.54,12.32,12.4,0,.8-.05,1.63-.21,2.45h-19.86c.24,3.84,3.52,6.85,7.94,6.85,3.2,0,5.76-1.36,7.68-4.37l3.89,2.83c-2.37,4.26-7.04,6.5-11.57,6.5-7.73,0-13.41-5.71-13.41-13.3s5.46-13.36,13.22-13.36Zm6.96,10.9c-.32-3.6-3.33-6.13-7.01-6.13-3.92,0-6.9,2.53-7.57,6.13h14.58Z"/>
      </g>
      <g>
        <path class="cls-3" d="m24.12,46.05c1.09,1.26.89.95,2.13,1.98.2.17,3.95,3.34,4.15,3.51-1.3-4.79,5.21-9.91,8.67-12.49,2.68-2,6.13-5.63,6.13-10.75-.34-2.17-1.3-4.61-3.13-7.31-.25-.35-.51-.7-.75-1.06.81,9.67-17.54,14.54-17.2,26.13Z"/>
        <path class="cls-2" d="m41.33,19.92c8.4,11.25,1.65,18.14-1.82,20.44-2.24,1.48-7.22,6.37-9.23,11.05-3.12-2.98-18.79-14.36-4.1-26.88C37.82,14.59,30,5.32,24.99,0c13.49,18.51-8.59,20.95-10.7,34.56-2.75,17.78,35.56,24.58,10.73,39.53,11.86-5.01,10.95-10.61,10.9-16.37-.04-4.93,1.64-9.73,5.6-12.81.15-.11.29-.23.44-.34,6.18-4.77,10.59-13.44-.65-24.65Z"/>
        <path class="cls-4" d="m12,35.55c1.97-15.07,27.64-18.61,13-35.55C20.84,14.73,1.22,19.85.04,36.96c-1.18,17.11,26.04,21.89,24.99,37.13,23.97-15.34-15.37-20.7-13.03-38.55Z"/>
      </g>
      <g>
        <path class="cls-1" d="m115.74,70.36v-11.66h2.53c.86,0,1.55.13,2.05.4.5.26.86.66,1.08,1.19.22.53.32,1.18.32,1.97v4.29c0,.83-.11,1.52-.32,2.09-.22.57-.57,1-1.05,1.29-.48.29-1.13.44-1.95.44h-2.66Zm1.63-1.17h.92c.59,0,1.02-.12,1.27-.35.25-.23.4-.57.45-1.01.05-.44.08-.97.08-1.6v-3.78c0-.6-.04-1.09-.12-1.47-.08-.37-.24-.65-.5-.82-.26-.17-.67-.26-1.22-.26h-.88v9.28Z"/>
        <path class="cls-1" d="m123.84,70.36v-11.66h1.6v11.66h-1.6Z"/>
        <path class="cls-1" d="m130.54,70.51c-.73,0-1.31-.16-1.75-.47-.44-.31-.75-.76-.95-1.36-.2-.59-.29-1.31-.29-2.14v-3.9c0-.85.09-1.58.27-2.18.18-.6.49-1.06.95-1.37.46-.32,1.09-.47,1.91-.47.73,0,1.32.12,1.76.37.45.24.77.62.97,1.12.2.5.3,1.14.3,1.91v.43h-1.53v-.36c0-.51-.03-.92-.1-1.24-.07-.32-.2-.56-.41-.72-.21-.16-.53-.24-.97-.24-.48,0-.83.11-1.04.33-.22.22-.35.52-.4.9-.05.38-.08.81-.08,1.29v4.32c0,.56.04,1.02.12,1.4.08.37.24.65.47.83s.56.27.98.27.75-.1.98-.3c.23-.2.39-.5.47-.89.09-.39.13-.88.13-1.47v-.81h-1.48v-1.15h2.95v5.77h-1.02l-.16-1.34c-.15.43-.39.79-.72,1.06-.33.28-.78.42-1.35.42Z"/>
        <path class="cls-1" d="m135.97,70.36v-11.66h1.6v11.66h-1.6Z"/>
        <path class="cls-1" d="m141.17,70.36v-10.45h-1.97v-1.21h5.51v1.21h-1.91v10.45h-1.63Z"/>
        <path class="cls-1" d="m145.04,70.36l2.48-11.66h1.57l2.49,11.66h-1.54l-.53-2.94h-2.37l-.56,2.94h-1.53Zm2.3-4.1h1.94l-.98-5.25-.96,5.25Z"/>
        <path class="cls-1" d="m153.19,70.36v-11.66h1.63v10.49h2.98v1.17h-4.6Z"/>
      </g>
    </g>
  </g>
</svg>